<?xml version="1.0" encoding="UTF-8"?>
<svg xmlns="http://www.w3.org/2000/svg" xmlns:xlink="http://www.w3.org/1999/xlink" width="100px" height="100px" viewBox="0 0 100 100" version="1.1">
<g id="surface1">
<path style=" stroke:none;fill-rule:evenodd;fill:rgb(10.588235%,12.156863%,13.725491%);fill-opacity:1;" d="M 50 0 C 22.375 0 0 22.375 0 50 C 0 72.125 14.3125 90.8125 34.1875 97.4375 C 36.6875 97.875 37.625 96.375 37.625 95.0625 C 37.625 93.875 37.5625 89.9375 37.5625 85.75 C 25 88.0625 21.75 82.6875 20.75 79.875 C 20.1875 78.4375 17.75 74 15.625 72.8125 C 13.875 71.875 11.375 69.5625 15.5625 69.5 C 19.5 69.4375 22.3125 73.125 23.25 74.625 C 27.75 82.1875 34.9375 80.0625 37.8125 78.75 C 38.25 75.5 39.5625 73.3125 41 72.0625 C 29.875 70.8125 18.25 66.5 18.25 47.375 C 18.25 41.9375 20.1875 37.4375 23.375 33.9375 C 22.875 32.6875 21.125 27.5625 23.875 20.6875 C 23.875 20.6875 28.0625 19.375 37.625 25.8125 C 41.625 24.6875 45.875 24.125 50.125 24.125 C 54.375 24.125 58.625 24.6875 62.625 25.8125 C 72.1875 19.3125 76.375 20.6875 76.375 20.6875 C 79.125 27.5625 77.375 32.6875 76.875 33.9375 C 80.0625 37.4375 82 41.875 82 47.375 C 82 66.5625 70.3125 70.8125 59.1875 72.0625 C 61 73.625 62.5625 76.625 62.5625 81.3125 C 62.5625 88 62.5 93.375 62.5 95.0625 C 62.5 96.375 63.4375 97.9375 65.9375 97.4375 C 85.6875 90.8125 100 72.0625 100 50 C 100 22.375 77.625 0 50 0 Z M 50 0 "/>
</g>
</svg>
