<?xml version="1.0" encoding="UTF-8"?>
<svg xmlns="http://www.w3.org/2000/svg" xmlns:xlink="http://www.w3.org/1999/xlink" width="300px" height="300px" viewBox="0 0 300 300" version="1.1">
<defs>
<linearGradient id="linear0" gradientUnits="userSpaceOnUse" x1="142.320007" y1="24.1287" x2="49.531502" y2="131.417007" gradientTransform="matrix(1.923077,0,0,1.923077,0,0)">
<stop offset="0" style="stop-color:rgb(96.078431%,74.117647%,0%);stop-opacity:1;"/>
<stop offset="0.364891" style="stop-color:rgb(96.078431%,29.411765%,0%);stop-opacity:1;"/>
<stop offset="1" style="stop-color:rgb(43.137255%,27.058824%,100%);stop-opacity:1;"/>
</linearGradient>
</defs>
<g id="surface1">
<path style=" stroke:none;fill-rule:nonzero;fill:rgb(12.54902%,12.54902%,19.215687%);fill-opacity:1;" d="M 150 300 C 233.125 300 300 233.125 300 150 C 300 66.875 233.125 0 150 0 C 66.875 0 0 66.875 0 150 C 0 233.125 66.875 300 150 300 Z M 150 300 "/>
<path style=" stroke:none;fill-rule:nonzero;fill:url(#linear0);" d="M 219.902344 93.578125 C 223.402344 90.078125 228.824219 90.285156 231.066406 93.992188 C 233.492188 97.972656 235.324219 102.273438 236.625 106.78125 C 237.359375 109.34375 236.511719 112.34375 234.382812 114.472656 L 165.8125 183.042969 C 161.667969 187.183594 156.523438 190.042969 151.054688 191.210938 L 145.355469 192.421875 C 139.910156 193.613281 134.714844 196.472656 130.597656 200.59375 L 77.949219 253.242188 C 75.707031 244.59375 74.722656 238.757812 81.746094 231.734375 Z M 234.757812 123.113281 C 237.046875 120.828125 240.570312 122.152344 240.34375 125.171875 C 238.921875 143.660156 230.113281 163.132812 214.417969 178.828125 C 202.449219 191.9375 168.675781 211.984375 144.539062 225.414062 C 139.597656 228.15625 135.570312 222.300781 139.621094 218.25 Z M 203.199219 65.84375 C 205.375 63.671875 208.578125 63.214844 210.773438 64.722656 C 215.351562 67.835938 219.625 72.34375 221.824219 77.789062 C 222.648438 79.894531 221.941406 82.480469 220.132812 84.289062 L 146.273438 158.144531 C 142.132812 162.285156 136.984375 165.144531 131.515625 166.3125 L 125.820312 167.527344 C 120.375 168.714844 115.179688 171.578125 111.058594 175.695312 L 65.503906 221.25 C 63.261719 212.601562 64.339844 204.707031 71.363281 197.683594 Z M 171.902344 52.71875 C 176.023438 48.601562 181.925781 47 186.773438 48.832031 C 189.816406 49.996094 192.746094 51.414062 195.515625 53.085938 C 199.175781 55.28125 199.359375 60.636719 195.925781 64.070312 L 128.382812 131.613281 C 124.515625 135.476562 119.253906 137.539062 114.21875 137.171875 C 108.933594 136.785156 103.375 138.957031 99.28125 143.050781 L 62.28125 180.050781 C 60.039062 171.402344 62.945312 161.675781 69.972656 154.652344 Z M 161.074219 46.15625 C 164.324219 46.109375 165.582031 49.976562 163.109375 52.445312 L 91.289062 124.269531 L 79.984375 135.570312 L 79.917969 135.640625 C 77.539062 138.019531 74.011719 135.867188 75.339844 132.847656 L 86.414062 107.679688 C 87.03125 106.148438 87.71875 104.589844 88.476562 103.011719 L 88.542969 102.851562 C 94.925781 89.328125 105.199219 74.984375 114.855469 65.328125 C 130.34375 49.839844 144.257812 46.316406 161.074219 46.15625 Z M 161.074219 46.15625 "/>
</g>
</svg>
