<?xml version="1.0" encoding="UTF-8"?>
<svg xmlns="http://www.w3.org/2000/svg" xmlns:xlink="http://www.w3.org/1999/xlink" width="300px" height="300px" viewBox="0 0 300 300" version="1.1">
<g id="surface1">
<path style=" stroke:none;fill-rule:nonzero;fill:rgb(90.196079%,85.490197%,99.607843%);fill-opacity:1;" d="M 300 150 C 300 232.84375 232.84375 300 150 300 C 67.15625 300 0 232.84375 0 150 C 0 67.15625 67.15625 0 150 0 C 232.84375 0 300 67.15625 300 150 Z M 300 150 "/>
<path style=" stroke:none;fill-rule:nonzero;fill:rgb(14.117648%,13.333334%,20.784314%);fill-opacity:1;" d="M 172.601562 137.746094 C 172.601562 148.402344 163.96875 157.042969 153.320312 157.042969 L 153.320312 176.335938 C 174.613281 176.335938 191.882812 159.058594 191.882812 137.746094 C 191.882812 116.4375 174.613281 99.15625 153.320312 99.15625 C 146.300781 99.15625 139.707031 101.035156 134.039062 104.324219 C 122.511719 110.992188 114.761719 123.460938 114.761719 137.746094 L 114.761719 234.222656 L 134.039062 253.515625 L 134.039062 137.746094 C 134.039062 127.09375 142.671875 118.453125 153.320312 118.453125 C 163.96875 118.453125 172.601562 127.09375 172.601562 137.746094 Z M 172.601562 137.746094 "/>
<path style=" stroke:none;fill-rule:nonzero;fill:rgb(14.117648%,13.333334%,20.784314%);fill-opacity:1;" d="M 153.320312 60.570312 C 139.273438 60.570312 126.105469 64.332031 114.761719 70.902344 C 107.496094 75.101562 100.992188 80.449219 95.480469 86.707031 C 83.480469 100.3125 76.199219 118.183594 76.199219 137.75 L 76.199219 195.632812 L 95.480469 214.929688 L 95.480469 137.75 C 95.480469 120.609375 102.925781 105.207031 114.761719 94.605469 C 120.324219 89.632812 126.855469 85.703125 134.039062 83.171875 C 140.066406 81.027344 146.5625 79.867188 153.320312 79.867188 C 185.261719 79.867188 211.160156 105.785156 211.160156 137.75 C 211.160156 169.714844 185.261719 195.632812 153.320312 195.632812 L 153.320312 214.929688 C 195.917969 214.929688 230.441406 180.371094 230.441406 137.75 C 230.441406 95.128906 195.917969 60.570312 153.320312 60.570312 Z M 153.320312 60.570312 "/>
</g>
</svg>
